<?xml version="1.0" encoding="UTF-8" standalone="no"?>
<svg
   xmlns:dc="http://purl.org/dc/elements/1.1/"
   xmlns:cc="http://creativecommons.org/ns#"
   xmlns:rdf="http://www.w3.org/1999/02/22-rdf-syntax-ns#"
   xmlns:svg="http://www.w3.org/2000/svg"
   xmlns="http://www.w3.org/2000/svg"
   xmlns:sodipodi="http://sodipodi.sourceforge.net/DTD/sodipodi-0.dtd"
   xmlns:inkscape="http://www.inkscape.org/namespaces/inkscape"
   height="512px"
   id="Layer_1"
   style="enable-background:new 0 0 512 512;"
   version="1.1"
   viewBox="0 0 512 512"
   width="512px"
   xml:space="preserve"
   sodipodi:docname="search.svg"
   inkscape:version="0.92.4 (f8dce91, 2019-08-02)"><metadata
     id="metadata3783"><rdf:RDF><cc:Work
         rdf:about=""><dc:format>image/svg+xml</dc:format><dc:type
           rdf:resource="http://purl.org/dc/dcmitype/StillImage" /><dc:title></dc:title></cc:Work></rdf:RDF></metadata><defs
     id="defs3781" /><sodipodi:namedview
     pagecolor="#ffffff"
     bordercolor="#666666"
     borderopacity="1"
     objecttolerance="10"
     gridtolerance="10"
     guidetolerance="10"
     inkscape:pageopacity="0"
     inkscape:pageshadow="2"
     inkscape:window-width="1920"
     inkscape:window-height="1025"
     id="namedview3779"
     showgrid="false"
     inkscape:zoom="1.6484375"
     inkscape:cx="42.925919"
     inkscape:cy="259.27171"
     inkscape:window-x="0"
     inkscape:window-y="27"
     inkscape:window-maximized="1"
     inkscape:current-layer="Layer_1" /><path
     d="M344.5,298c15-23.6,23.8-51.6,23.8-81.7c0-84.1-68.1-152.3-152.1-152.3C132.1,64,64,132.2,64,216.3  c0,84.1,68.1,152.3,152.1,152.3c30.5,0,58.9-9,82.7-24.4l6.9-4.8L414.3,448l33.7-34.3L339.5,305.1L344.5,298z M301.4,131.2  c22.7,22.7,35.2,52.9,35.2,85c0,32.1-12.5,62.3-35.2,85c-22.7,22.7-52.9,35.2-85,35.2c-32.1,0-62.3-12.5-85-35.2  c-22.7-22.7-35.2-52.9-35.2-85c0-32.1,12.5-62.3,35.2-85c22.7-22.7,52.9-35.2,85-35.2C248.5,96,278.7,108.5,301.4,131.2z"
     id="path3776"
     style="fill:#d9d9d9;fill-opacity:0.98930484" /><path
     style="stroke-width:0.60663509;fill:#d9d9d9;fill-opacity:0.98930484"
     d="m 360.11891,393.18137 -54.22822,-54.22822 -6.6553,4.44395 c -19.63084,13.10814 -43.50181,21.56698 -68.14351,24.14711 -9.75686,1.0216 -29.86417,0.41465 -39.24635,-1.18468 -31.94038,-5.44471 -60.10273,-19.89656 -82.83625,-42.50845 -47.136309,-46.8841 -58.209896,-119.13062 -27.294708,-178.07667 7.592721,-14.47706 14.855582,-24.22998 27.342718,-36.71712 13.63737,-13.63737 24.13936,-21.179898 40.96356,-29.420013 14.62277,-7.161905 30.38293,-11.879054 47.92417,-14.344115 7.04441,-0.989947 29.3537,-0.989947 36.39811,0 27.87425,3.917151 51.72634,13.617605 73.51799,29.899171 7.60028,5.678527 23.50412,21.564327 29.13295,29.099917 16.401,21.9568 26.37166,46.52812 30.01024,73.95609 0.97479,7.34812 0.96142,28.97392 -0.0223,36.09479 -3.22911,23.37411 -11.98859,47.42936 -23.3995,64.25963 -2.1935,3.23524 -3.98818,6.20593 -3.98818,6.60152 0,0.39559 24.28203,25.01556 53.96006,54.71105 l 53.96005,53.99178 -16.58364,16.75124 -16.58364,16.75124 -54.22823,-54.22822 z M 229.49005,335.92791 c 35.73383,-4.07936 67.16323,-23.18959 87.14576,-52.98783 13.42021,-20.01242 19.9823,-41.96633 19.9732,-66.82173 -0.009,-23.49462 -5.94762,-44.53644 -17.97954,-63.70107 -29.60478,-47.15495 -87.08022,-67.901664 -140.05575,-50.55545 -30.88737,10.1137 -57.37479,33.51374 -71.10144,62.8138 -15.25413,32.56055 -15.24203,70.90259 0.0325,103.03243 6.2297,13.1041 13.27991,23.01353 23.97591,33.69935 20.03732,20.01827 45.25537,31.9503 73.44062,34.74875 4.89178,0.4857 19.5039,0.34994 24.56872,-0.22825 z"
     id="path3785"
     inkscape:connector-curvature="0" /></svg>